<mxfile host="app.diagrams.net" agent="Mozilla/5.0 (X11; Linux x86_64) AppleWebKit/537.36 (KHTML, like Gecko) Chrome/136.0.0.0 Safari/537.36" version="27.0.6" pages="2">
  <diagram name="Página-1" id="-zYPJUtp7PYfaca8r91e">
    <mxGraphModel grid="1" page="1" gridSize="10" guides="1" tooltips="1" connect="1" arrows="1" fold="1" pageScale="1" pageWidth="1169" pageHeight="1654" math="0" shadow="0">
      <root>
        <mxCell id="0" />
        <mxCell id="1" parent="0" />
        <mxCell id="Aoa92pGsLHvjfA5CWzYp-9" value="CALIFICACIONES" style="swimlane;fontStyle=0;childLayout=stackLayout;horizontal=1;startSize=26;fillColor=none;horizontalStack=0;resizeParent=1;resizeParentMax=0;resizeLast=0;collapsible=1;marginBottom=0;html=1;container=0;" vertex="1" parent="1">
          <mxGeometry x="-360.00152542372876" y="-1465.8683641160949" width="149.49152542372883" height="136.86015831134566" as="geometry" />
        </mxCell>
        <mxCell id="QM9NAzKTUCTFnRBeNIhy-18" value="&lt;u&gt;&lt;font&gt;Tablas (BDD)&lt;/font&gt;&lt;/u&gt;" style="text;align=center;fontStyle=1;verticalAlign=middle;spacingLeft=3;spacingRight=3;strokeColor=none;rotatable=0;points=[[0,0.5],[1,0.5]];portConstraint=eastwest;html=1;fontSize=16;container=0;" vertex="1" parent="1">
          <mxGeometry x="-684.4067796610169" y="-1570" width="181.52542372881356" height="27.37203166226913" as="geometry" />
        </mxCell>
        <mxCell id="QM9NAzKTUCTFnRBeNIhy-11" style="text;strokeColor=none;fillColor=none;align=left;verticalAlign=top;spacingLeft=4;spacingRight=4;overflow=hidden;rotatable=0;points=[[0,0.5],[1,0.5]];portConstraint=eastwest;whiteSpace=wrap;html=1;" vertex="1" parent="1">
          <mxGeometry x="-663.0508474576271" y="-1317.335092348285" width="117.45762711864407" height="14.738786279683378" as="geometry" />
        </mxCell>
        <mxCell id="Aoa92pGsLHvjfA5CWzYp-10" value="- id_restaurante(FK&lt;span style=&quot;background-color: transparent; color: light-dark(rgb(0, 0, 0), rgb(255, 255, 255));&quot;&gt;)&lt;/span&gt;" style="text;strokeColor=none;fillColor=none;align=left;verticalAlign=top;spacingLeft=4;spacingRight=4;overflow=hidden;rotatable=0;points=[[0,0.5],[1,0.5]];portConstraint=eastwest;whiteSpace=wrap;html=1;" vertex="1" parent="1">
          <mxGeometry x="-360.00152542372876" y="-1438.4963324538257" width="149.49152542372883" height="27.37203166226913" as="geometry" />
        </mxCell>
        <mxCell id="Aoa92pGsLHvjfA5CWzYp-11" value="- id_usr(FK)" style="text;strokeColor=none;fillColor=none;align=left;verticalAlign=top;spacingLeft=4;spacingRight=4;overflow=hidden;rotatable=0;points=[[0,0.5],[1,0.5]];portConstraint=eastwest;whiteSpace=wrap;html=1;" vertex="1" parent="1">
          <mxGeometry x="-360.00152542372876" y="-1411.1243007915566" width="149.49152542372883" height="27.37203166226913" as="geometry" />
        </mxCell>
        <mxCell id="Aoa92pGsLHvjfA5CWzYp-12" value="- Calificacion" style="text;strokeColor=none;fillColor=none;align=left;verticalAlign=top;spacingLeft=4;spacingRight=4;overflow=hidden;rotatable=0;points=[[0,0.5],[1,0.5]];portConstraint=eastwest;whiteSpace=wrap;html=1;" vertex="1" parent="1">
          <mxGeometry x="-360.00152542372876" y="-1383.7522691292875" width="149.49152542372883" height="27.37203166226913" as="geometry" />
        </mxCell>
        <mxCell id="QM9NAzKTUCTFnRBeNIhy-15" value="- Comentario" style="text;strokeColor=none;fillColor=none;align=left;verticalAlign=top;spacingLeft=4;spacingRight=4;overflow=hidden;rotatable=0;points=[[0,0.5],[1,0.5]];portConstraint=eastwest;whiteSpace=wrap;html=1;" vertex="1" parent="1">
          <mxGeometry x="-360.00152542372876" y="-1356.3802374670183" width="149.49152542372883" height="27.37203166226913" as="geometry" />
        </mxCell>
        <mxCell id="QM9NAzKTUCTFnRBeNIhy-27" style="text;strokeColor=none;fillColor=none;align=left;verticalAlign=top;spacingLeft=4;spacingRight=4;overflow=hidden;rotatable=0;points=[[0,0.5],[1,0.5]];portConstraint=eastwest;whiteSpace=wrap;html=1;" vertex="1" parent="1">
          <mxGeometry x="-668.3898305084746" y="-1404.7150395778365" width="149.49152542372883" height="33.68865435356201" as="geometry" />
        </mxCell>
        <mxCell id="QM9NAzKTUCTFnRBeNIhy-23" style="text;strokeColor=none;fillColor=none;align=left;verticalAlign=top;spacingLeft=4;spacingRight=4;overflow=hidden;rotatable=0;points=[[0,0.5],[1,0.5]];portConstraint=eastwest;whiteSpace=wrap;html=1;" vertex="1" parent="1">
          <mxGeometry x="-668.3898305084746" y="-1238.377308707124" width="149.49152542372883" height="33.68865435356201" as="geometry" />
        </mxCell>
        <mxCell id="QM9NAzKTUCTFnRBeNIhy-28" value="" style="group" connectable="0" vertex="1" parent="1">
          <mxGeometry x="-668.3898305084746" y="-1502.622691292876" width="154.83050847457628" height="297.934036939314" as="geometry" />
        </mxCell>
        <mxCell id="Aoa92pGsLHvjfA5CWzYp-1" value="restaurantes" style="swimlane;fontStyle=0;childLayout=stackLayout;horizontal=1;startSize=26;fillColor=none;horizontalStack=0;resizeParent=1;resizeParentMax=0;resizeLast=0;collapsible=1;marginBottom=0;html=1;verticalAlign=top;container=0;" vertex="1" parent="QM9NAzKTUCTFnRBeNIhy-28">
          <mxGeometry x="5.338983050847458" width="149.49152542372883" height="247.0817941952507" as="geometry" />
        </mxCell>
        <mxCell id="QM9NAzKTUCTFnRBeNIhy-34" value="- id_restaurante(PK)" style="text;strokeColor=none;fillColor=none;align=left;verticalAlign=top;spacingLeft=4;spacingRight=4;overflow=hidden;rotatable=0;points=[[0,0.5],[1,0.5]];portConstraint=eastwest;whiteSpace=wrap;html=1;container=0;" vertex="1" parent="Aoa92pGsLHvjfA5CWzYp-1">
          <mxGeometry y="26" width="149.49152542372883" height="31.583113456464382" as="geometry" />
        </mxCell>
        <mxCell id="QM9NAzKTUCTFnRBeNIhy-33" value="- id_usr(FK)" style="text;strokeColor=none;fillColor=none;align=left;verticalAlign=top;spacingLeft=4;spacingRight=4;overflow=hidden;rotatable=0;points=[[0,0.5],[1,0.5]];portConstraint=eastwest;whiteSpace=wrap;html=1;container=0;" vertex="1" parent="Aoa92pGsLHvjfA5CWzYp-1">
          <mxGeometry y="57.58311345646438" width="149.49152542372883" height="31.583113456464382" as="geometry" />
        </mxCell>
        <mxCell id="QM9NAzKTUCTFnRBeNIhy-32" value="- Nombre restaurante" style="text;strokeColor=none;fillColor=none;align=left;verticalAlign=top;spacingLeft=4;spacingRight=4;overflow=hidden;rotatable=0;points=[[0,0.5],[1,0.5]];portConstraint=eastwest;whiteSpace=wrap;html=1;container=0;" vertex="1" parent="Aoa92pGsLHvjfA5CWzYp-1">
          <mxGeometry y="89.16622691292876" width="149.49152542372883" height="31.583113456464382" as="geometry" />
        </mxCell>
        <mxCell id="QM9NAzKTUCTFnRBeNIhy-31" value="- Categoria" style="text;strokeColor=none;fillColor=none;align=left;verticalAlign=top;spacingLeft=4;spacingRight=4;overflow=hidden;rotatable=0;points=[[0,0.5],[1,0.5]];portConstraint=eastwest;whiteSpace=wrap;html=1;container=0;" vertex="1" parent="Aoa92pGsLHvjfA5CWzYp-1">
          <mxGeometry y="120.74934036939314" width="149.49152542372883" height="31.583113456464382" as="geometry" />
        </mxCell>
        <mxCell id="QM9NAzKTUCTFnRBeNIhy-2" value="- Tipo de cocina" style="text;strokeColor=none;fillColor=none;align=left;verticalAlign=top;spacingLeft=4;spacingRight=4;overflow=hidden;rotatable=0;points=[[0,0.5],[1,0.5]];portConstraint=eastwest;whiteSpace=wrap;html=1;container=0;" vertex="1" parent="Aoa92pGsLHvjfA5CWzYp-1">
          <mxGeometry y="152.33245382585753" width="149.49152542372883" height="31.583113456464382" as="geometry" />
        </mxCell>
        <mxCell id="QM9NAzKTUCTFnRBeNIhy-30" value="- Teléfono" style="text;strokeColor=none;fillColor=none;align=left;verticalAlign=top;spacingLeft=4;spacingRight=4;overflow=hidden;rotatable=0;points=[[0,0.5],[1,0.5]];portConstraint=eastwest;whiteSpace=wrap;html=1;container=0;" vertex="1" parent="Aoa92pGsLHvjfA5CWzYp-1">
          <mxGeometry y="183.91556728232192" width="149.49152542372883" height="31.583113456464382" as="geometry" />
        </mxCell>
        <mxCell id="QM9NAzKTUCTFnRBeNIhy-29" value="- Ubicacón" style="text;strokeColor=none;fillColor=none;align=left;verticalAlign=top;spacingLeft=4;spacingRight=4;overflow=hidden;rotatable=0;points=[[0,0.5],[1,0.5]];portConstraint=eastwest;whiteSpace=wrap;html=1;container=0;" vertex="1" parent="Aoa92pGsLHvjfA5CWzYp-1">
          <mxGeometry y="215.4986807387863" width="149.49152542372883" height="31.583113456464382" as="geometry" />
        </mxCell>
        <mxCell id="2jJyemQU6JO8SsKbAe8m-15" style="edgeStyle=orthogonalEdgeStyle;rounded=0;orthogonalLoop=1;jettySize=auto;html=1;exitX=1;exitY=0.25;exitDx=0;exitDy=0;entryX=0;entryY=0.5;entryDx=0;entryDy=0;" edge="1" parent="1" source="2jJyemQU6JO8SsKbAe8m-3" target="Aoa92pGsLHvjfA5CWzYp-11">
          <mxGeometry relative="1" as="geometry">
            <Array as="points">
              <mxPoint x="-720" y="-1427" />
              <mxPoint x="-720" y="-1210" />
              <mxPoint x="-440" y="-1210" />
              <mxPoint x="-440" y="-1397" />
            </Array>
          </mxGeometry>
        </mxCell>
        <mxCell id="2jJyemQU6JO8SsKbAe8m-3" value="Classname" style="swimlane;fontStyle=0;childLayout=stackLayout;horizontal=1;startSize=26;fillColor=none;horizontalStack=0;resizeParent=1;resizeParentMax=0;resizeLast=0;collapsible=1;marginBottom=0;whiteSpace=wrap;html=1;" vertex="1" parent="1">
          <mxGeometry x="-960" y="-1465.87" width="150" height="156" as="geometry" />
        </mxCell>
        <mxCell id="2jJyemQU6JO8SsKbAe8m-20" style="edgeStyle=orthogonalEdgeStyle;rounded=0;orthogonalLoop=1;jettySize=auto;html=1;exitX=1;exitY=0.5;exitDx=0;exitDy=0;" edge="1" parent="2jJyemQU6JO8SsKbAe8m-3" source="2jJyemQU6JO8SsKbAe8m-4">
          <mxGeometry relative="1" as="geometry">
            <mxPoint x="290" y="39.01285714285723" as="targetPoint" />
          </mxGeometry>
        </mxCell>
        <mxCell id="2jJyemQU6JO8SsKbAe8m-4" value="- id_usr(PK)" style="text;strokeColor=none;fillColor=none;align=left;verticalAlign=top;spacingLeft=4;spacingRight=4;overflow=hidden;rotatable=0;points=[[0,0.5],[1,0.5]];portConstraint=eastwest;whiteSpace=wrap;html=1;" vertex="1" parent="2jJyemQU6JO8SsKbAe8m-3">
          <mxGeometry y="26" width="150" height="26" as="geometry" />
        </mxCell>
        <mxCell id="2jJyemQU6JO8SsKbAe8m-5" value="- nombre de usuario" style="text;strokeColor=none;fillColor=none;align=left;verticalAlign=top;spacingLeft=4;spacingRight=4;overflow=hidden;rotatable=0;points=[[0,0.5],[1,0.5]];portConstraint=eastwest;whiteSpace=wrap;html=1;" vertex="1" parent="2jJyemQU6JO8SsKbAe8m-3">
          <mxGeometry y="52" width="150" height="26" as="geometry" />
        </mxCell>
        <mxCell id="2jJyemQU6JO8SsKbAe8m-6" value="- email de usuario" style="text;strokeColor=none;fillColor=none;align=left;verticalAlign=top;spacingLeft=4;spacingRight=4;overflow=hidden;rotatable=0;points=[[0,0.5],[1,0.5]];portConstraint=eastwest;whiteSpace=wrap;html=1;" vertex="1" parent="2jJyemQU6JO8SsKbAe8m-3">
          <mxGeometry y="78" width="150" height="26" as="geometry" />
        </mxCell>
        <mxCell id="2jJyemQU6JO8SsKbAe8m-7" value="- contraseña" style="text;strokeColor=none;fillColor=none;align=left;verticalAlign=top;spacingLeft=4;spacingRight=4;overflow=hidden;rotatable=0;points=[[0,0.5],[1,0.5]];portConstraint=eastwest;whiteSpace=wrap;html=1;" vertex="1" parent="2jJyemQU6JO8SsKbAe8m-3">
          <mxGeometry y="104" width="150" height="26" as="geometry" />
        </mxCell>
        <mxCell id="2jJyemQU6JO8SsKbAe8m-8" value="- tipo de usuario" style="text;strokeColor=none;fillColor=none;align=left;verticalAlign=top;spacingLeft=4;spacingRight=4;overflow=hidden;rotatable=0;points=[[0,0.5],[1,0.5]];portConstraint=eastwest;whiteSpace=wrap;html=1;" vertex="1" parent="2jJyemQU6JO8SsKbAe8m-3">
          <mxGeometry y="130" width="150" height="26" as="geometry" />
        </mxCell>
        <mxCell id="2jJyemQU6JO8SsKbAe8m-10" style="edgeStyle=orthogonalEdgeStyle;rounded=0;orthogonalLoop=1;jettySize=auto;html=1;exitX=1;exitY=0.5;exitDx=0;exitDy=0;" edge="1" parent="1" source="QM9NAzKTUCTFnRBeNIhy-34" target="Aoa92pGsLHvjfA5CWzYp-10">
          <mxGeometry relative="1" as="geometry" />
        </mxCell>
      </root>
    </mxGraphModel>
  </diagram>
  <diagram id="cALdVNJmMJhBmjdh87w6" name="Página-2">
    <mxGraphModel grid="1" page="1" gridSize="10" guides="1" tooltips="1" connect="1" arrows="1" fold="1" pageScale="1" pageWidth="827" pageHeight="1169" math="0" shadow="0">
      <root>
        <mxCell id="0" />
        <mxCell id="1" parent="0" />
        <mxCell id="doMoEdmNG70haGPzJiyn-1" value="" style="group" connectable="0" vertex="1" parent="1">
          <mxGeometry x="250" y="90" width="980" height="800" as="geometry" />
        </mxCell>
        <mxCell id="doMoEdmNG70haGPzJiyn-2" value="&lt;span style=&quot;font-size: 14px;&quot;&gt;- Recibir noticias&lt;/span&gt;" style="text;strokeColor=none;fillColor=none;align=center;verticalAlign=top;spacingLeft=4;spacingRight=4;overflow=hidden;rotatable=0;points=[[0,0.5],[1,0.5]];portConstraint=eastwest;whiteSpace=wrap;html=1;" vertex="1" parent="doMoEdmNG70haGPzJiyn-1">
          <mxGeometry y="511" width="140" height="36" as="geometry" />
        </mxCell>
        <mxCell id="doMoEdmNG70haGPzJiyn-3" value="mejores review&lt;div&gt;mayor publicidad&lt;/div&gt;" style="text;html=1;align=center;verticalAlign=middle;resizable=0;points=[];autosize=1;strokeColor=none;fillColor=none;" vertex="1" parent="doMoEdmNG70haGPzJiyn-1">
          <mxGeometry x="410" y="760" width="110" height="40" as="geometry" />
        </mxCell>
        <mxCell id="doMoEdmNG70haGPzJiyn-4" value="Mapa lógico del sitio web" style="text;strokeColor=none;align=center;fillColor=none;html=1;verticalAlign=middle;whiteSpace=wrap;rounded=0;fontSize=16;fontStyle=5" vertex="1" parent="doMoEdmNG70haGPzJiyn-1">
          <mxGeometry x="540" width="220" height="50" as="geometry" />
        </mxCell>
        <mxCell id="doMoEdmNG70haGPzJiyn-5" value="" style="group" connectable="0" vertex="1" parent="doMoEdmNG70haGPzJiyn-1">
          <mxGeometry x="190" y="70" width="790" height="687.9999999999998" as="geometry" />
        </mxCell>
        <mxCell id="doMoEdmNG70haGPzJiyn-6" style="edgeStyle=orthogonalEdgeStyle;rounded=0;orthogonalLoop=1;jettySize=auto;html=1;exitX=1;exitY=0.5;exitDx=0;exitDy=0;" edge="1" parent="doMoEdmNG70haGPzJiyn-5">
          <mxGeometry relative="1" as="geometry">
            <mxPoint x="20.000000000000227" y="687.9999999999998" as="sourcePoint" />
            <mxPoint x="20.000000000000227" y="687.9999999999998" as="targetPoint" />
          </mxGeometry>
        </mxCell>
        <mxCell id="doMoEdmNG70haGPzJiyn-7" style="edgeStyle=orthogonalEdgeStyle;rounded=0;orthogonalLoop=1;jettySize=auto;html=1;exitX=1;exitY=0.5;exitDx=0;exitDy=0;entryX=1;entryY=0.5;entryDx=0;entryDy=0;" edge="1" parent="doMoEdmNG70haGPzJiyn-5" source="doMoEdmNG70haGPzJiyn-9" target="doMoEdmNG70haGPzJiyn-22">
          <mxGeometry relative="1" as="geometry">
            <Array as="points">
              <mxPoint x="630" y="350" />
              <mxPoint x="630" y="20" />
            </Array>
          </mxGeometry>
        </mxCell>
        <mxCell id="doMoEdmNG70haGPzJiyn-8" style="edgeStyle=orthogonalEdgeStyle;rounded=0;orthogonalLoop=1;jettySize=auto;html=1;exitX=0;exitY=0.5;exitDx=0;exitDy=0;" edge="1" parent="doMoEdmNG70haGPzJiyn-5" source="doMoEdmNG70haGPzJiyn-9">
          <mxGeometry relative="1" as="geometry">
            <mxPoint x="330" y="450" as="targetPoint" />
          </mxGeometry>
        </mxCell>
        <mxCell id="doMoEdmNG70haGPzJiyn-9" value="¿Logeado?" style="rhombus;whiteSpace=wrap;html=1;" vertex="1" parent="doMoEdmNG70haGPzJiyn-5">
          <mxGeometry x="396" y="310" width="110" height="80" as="geometry" />
        </mxCell>
        <mxCell id="doMoEdmNG70haGPzJiyn-10" value="Si" style="text;html=1;align=center;verticalAlign=middle;resizable=0;points=[];autosize=1;strokeColor=none;fillColor=none;" vertex="1" parent="doMoEdmNG70haGPzJiyn-5">
          <mxGeometry x="340" y="320" width="30" height="30" as="geometry" />
        </mxCell>
        <mxCell id="doMoEdmNG70haGPzJiyn-11" value="No&lt;div&gt;&lt;br&gt;&lt;/div&gt;" style="text;strokeColor=none;align=center;fillColor=none;html=1;verticalAlign=middle;whiteSpace=wrap;rounded=0;" vertex="1" parent="doMoEdmNG70haGPzJiyn-5">
          <mxGeometry x="506" y="320" width="100" height="50" as="geometry" />
        </mxCell>
        <mxCell id="doMoEdmNG70haGPzJiyn-12" value="Dar review" style="rounded=0;whiteSpace=wrap;html=1;" vertex="1" parent="doMoEdmNG70haGPzJiyn-5">
          <mxGeometry y="540" width="110" height="40" as="geometry" />
        </mxCell>
        <mxCell id="doMoEdmNG70haGPzJiyn-13" style="edgeStyle=orthogonalEdgeStyle;rounded=0;orthogonalLoop=1;jettySize=auto;html=1;exitX=1;exitY=0.5;exitDx=0;exitDy=0;" edge="1" parent="doMoEdmNG70haGPzJiyn-5" source="doMoEdmNG70haGPzJiyn-15">
          <mxGeometry relative="1" as="geometry">
            <mxPoint x="450" y="514.9629629629628" as="targetPoint" />
          </mxGeometry>
        </mxCell>
        <mxCell id="doMoEdmNG70haGPzJiyn-14" style="edgeStyle=orthogonalEdgeStyle;rounded=0;orthogonalLoop=1;jettySize=auto;html=1;exitX=0;exitY=0.5;exitDx=0;exitDy=0;" edge="1" parent="doMoEdmNG70haGPzJiyn-5" source="doMoEdmNG70haGPzJiyn-15">
          <mxGeometry relative="1" as="geometry">
            <mxPoint x="114" y="465" as="targetPoint" />
            <Array as="points">
              <mxPoint x="164" y="515" />
              <mxPoint x="164" y="465" />
              <mxPoint x="134" y="465" />
            </Array>
          </mxGeometry>
        </mxCell>
        <mxCell id="doMoEdmNG70haGPzJiyn-15" value="¿Que tipo de usuario es?" style="rhombus;whiteSpace=wrap;html=1;" vertex="1" parent="doMoEdmNG70haGPzJiyn-5">
          <mxGeometry x="266.5" y="460" width="129.5" height="110" as="geometry" />
        </mxCell>
        <mxCell id="doMoEdmNG70haGPzJiyn-16" value="Agregar fav" style="rounded=0;whiteSpace=wrap;html=1;" vertex="1" parent="doMoEdmNG70haGPzJiyn-5">
          <mxGeometry x="0.5" y="440" width="110" height="37" as="geometry" />
        </mxCell>
        <mxCell id="doMoEdmNG70haGPzJiyn-17" value="Cliente" style="text;strokeColor=none;align=center;fillColor=none;html=1;verticalAlign=middle;whiteSpace=wrap;rounded=0;fontSize=12;" vertex="1" parent="doMoEdmNG70haGPzJiyn-5">
          <mxGeometry x="144" y="494" width="150" height="19" as="geometry" />
        </mxCell>
        <mxCell id="doMoEdmNG70haGPzJiyn-18" style="edgeStyle=orthogonalEdgeStyle;rounded=0;orthogonalLoop=1;jettySize=auto;html=1;exitX=1;exitY=0;exitDx=0;exitDy=0;" edge="1" parent="doMoEdmNG70haGPzJiyn-5" source="doMoEdmNG70haGPzJiyn-20" target="doMoEdmNG70haGPzJiyn-23">
          <mxGeometry relative="1" as="geometry">
            <Array as="points">
              <mxPoint x="620" y="480" />
              <mxPoint x="620" y="457" />
            </Array>
          </mxGeometry>
        </mxCell>
        <mxCell id="doMoEdmNG70haGPzJiyn-19" style="edgeStyle=orthogonalEdgeStyle;rounded=0;orthogonalLoop=1;jettySize=auto;html=1;exitX=1;exitY=1;exitDx=0;exitDy=0;" edge="1" parent="doMoEdmNG70haGPzJiyn-5" source="doMoEdmNG70haGPzJiyn-20" target="doMoEdmNG70haGPzJiyn-25">
          <mxGeometry relative="1" as="geometry">
            <mxPoint x="640" y="580" as="targetPoint" />
            <Array as="points">
              <mxPoint x="620" y="550" />
              <mxPoint x="620" y="581" />
            </Array>
          </mxGeometry>
        </mxCell>
        <mxCell id="doMoEdmNG70haGPzJiyn-20" value="Publicitar tu establecimiento" style="rounded=0;whiteSpace=wrap;html=1;" vertex="1" parent="doMoEdmNG70haGPzJiyn-5">
          <mxGeometry x="460" y="480" width="125.5" height="70" as="geometry" />
        </mxCell>
        <mxCell id="doMoEdmNG70haGPzJiyn-21" style="edgeStyle=orthogonalEdgeStyle;rounded=0;orthogonalLoop=1;jettySize=auto;html=1;exitX=0.5;exitY=1;exitDx=0;exitDy=0;entryX=0.5;entryY=0;entryDx=0;entryDy=0;" edge="1" parent="doMoEdmNG70haGPzJiyn-5" source="doMoEdmNG70haGPzJiyn-22" target="doMoEdmNG70haGPzJiyn-27">
          <mxGeometry relative="1" as="geometry" />
        </mxCell>
        <mxCell id="doMoEdmNG70haGPzJiyn-22" value="&lt;font size=&quot;1&quot;&gt;HOME&lt;/font&gt;" style="rounded=1;whiteSpace=wrap;html=1;" vertex="1" parent="doMoEdmNG70haGPzJiyn-5">
          <mxGeometry x="388" width="126" height="40" as="geometry" />
        </mxCell>
        <mxCell id="doMoEdmNG70haGPzJiyn-23" value="- Los 3 mejores platos" style="text;strokeColor=none;fillColor=none;align=center;verticalAlign=top;spacingLeft=4;spacingRight=4;overflow=hidden;rotatable=0;points=[[0,0.5],[1,0.5]];portConstraint=eastwest;whiteSpace=wrap;html=1;fontSize=15;" vertex="1" parent="doMoEdmNG70haGPzJiyn-5">
          <mxGeometry x="660" y="434" width="130" height="46" as="geometry" />
        </mxCell>
        <mxCell id="doMoEdmNG70haGPzJiyn-24" value="- Fotos y videos" style="text;strokeColor=none;fillColor=none;align=center;verticalAlign=top;spacingLeft=4;spacingRight=4;overflow=hidden;rotatable=0;points=[[0,0.5],[1,0.5]];portConstraint=eastwest;whiteSpace=wrap;html=1;fontSize=15;" vertex="1" parent="doMoEdmNG70haGPzJiyn-5">
          <mxGeometry x="660" y="504" width="130" height="36" as="geometry" />
        </mxCell>
        <mxCell id="doMoEdmNG70haGPzJiyn-25" value="&lt;font&gt;- Descuentos&lt;/font&gt;" style="text;strokeColor=none;fillColor=none;align=center;verticalAlign=top;spacingLeft=4;spacingRight=4;overflow=hidden;rotatable=0;points=[[0,0.5],[1,0.5]];portConstraint=eastwest;whiteSpace=wrap;html=1;fontSize=15;" vertex="1" parent="doMoEdmNG70haGPzJiyn-5">
          <mxGeometry x="654" y="560" width="136" height="42" as="geometry" />
        </mxCell>
        <mxCell id="doMoEdmNG70haGPzJiyn-26" style="edgeStyle=orthogonalEdgeStyle;rounded=0;orthogonalLoop=1;jettySize=auto;html=1;exitX=0.5;exitY=1;exitDx=0;exitDy=0;entryX=0.5;entryY=0;entryDx=0;entryDy=0;" edge="1" parent="doMoEdmNG70haGPzJiyn-5" source="doMoEdmNG70haGPzJiyn-27" target="doMoEdmNG70haGPzJiyn-29">
          <mxGeometry relative="1" as="geometry" />
        </mxCell>
        <mxCell id="doMoEdmNG70haGPzJiyn-27" value="Buscador de restaurantes" style="html=1;whiteSpace=wrap;" vertex="1" parent="doMoEdmNG70haGPzJiyn-5">
          <mxGeometry x="401" y="70" width="100" height="45" as="geometry" />
        </mxCell>
        <mxCell id="doMoEdmNG70haGPzJiyn-28" style="edgeStyle=orthogonalEdgeStyle;rounded=0;orthogonalLoop=1;jettySize=auto;html=1;exitX=0.5;exitY=1;exitDx=0;exitDy=0;" edge="1" parent="doMoEdmNG70haGPzJiyn-5" source="doMoEdmNG70haGPzJiyn-29" target="doMoEdmNG70haGPzJiyn-31">
          <mxGeometry relative="1" as="geometry" />
        </mxCell>
        <mxCell id="doMoEdmNG70haGPzJiyn-29" value="Seleccionar Restaurante" style="rounded=0;whiteSpace=wrap;html=1;" vertex="1" parent="doMoEdmNG70haGPzJiyn-5">
          <mxGeometry x="406" y="140" width="90" height="40" as="geometry" />
        </mxCell>
        <mxCell id="doMoEdmNG70haGPzJiyn-30" style="edgeStyle=orthogonalEdgeStyle;rounded=0;orthogonalLoop=1;jettySize=auto;html=1;exitX=0.5;exitY=1;exitDx=0;exitDy=0;" edge="1" parent="doMoEdmNG70haGPzJiyn-5" source="doMoEdmNG70haGPzJiyn-31" target="doMoEdmNG70haGPzJiyn-9">
          <mxGeometry relative="1" as="geometry" />
        </mxCell>
        <mxCell id="doMoEdmNG70haGPzJiyn-31" value="Detalles del restaurante" style="rounded=0;whiteSpace=wrap;html=1;" vertex="1" parent="doMoEdmNG70haGPzJiyn-5">
          <mxGeometry x="403" y="220" width="96" height="50" as="geometry" />
        </mxCell>
        <mxCell id="doMoEdmNG70haGPzJiyn-32" style="edgeStyle=orthogonalEdgeStyle;rounded=0;orthogonalLoop=1;jettySize=auto;html=1;exitX=1;exitY=0.5;exitDx=0;exitDy=0;" edge="1" parent="doMoEdmNG70haGPzJiyn-5" source="doMoEdmNG70haGPzJiyn-20">
          <mxGeometry relative="1" as="geometry">
            <mxPoint x="650" y="514.7894736842106" as="targetPoint" />
          </mxGeometry>
        </mxCell>
        <mxCell id="doMoEdmNG70haGPzJiyn-33" value="" style="endArrow=classic;html=1;rounded=0;exitX=0.5;exitY=1;exitDx=0;exitDy=0;" edge="1" parent="doMoEdmNG70haGPzJiyn-5" source="doMoEdmNG70haGPzJiyn-12">
          <mxGeometry width="50" height="50" relative="1" as="geometry">
            <mxPoint x="310" y="680" as="sourcePoint" />
            <mxPoint x="520" y="560" as="targetPoint" />
            <Array as="points">
              <mxPoint x="55" y="630" />
              <mxPoint x="520" y="630" />
            </Array>
          </mxGeometry>
        </mxCell>
        <mxCell id="doMoEdmNG70haGPzJiyn-34" value="RETROALIEMNTACIÓN." style="text;html=1;align=center;verticalAlign=middle;resizable=0;points=[];autosize=1;strokeColor=none;fillColor=none;" vertex="1" parent="doMoEdmNG70haGPzJiyn-5">
          <mxGeometry x="200" y="640" width="160" height="30" as="geometry" />
        </mxCell>
        <mxCell id="doMoEdmNG70haGPzJiyn-35" value="Restaurante" style="text;strokeColor=none;align=center;fillColor=none;html=1;verticalAlign=middle;whiteSpace=wrap;rounded=0;" vertex="1" parent="doMoEdmNG70haGPzJiyn-5">
          <mxGeometry x="370" y="471.5" width="90" height="30" as="geometry" />
        </mxCell>
        <mxCell id="doMoEdmNG70haGPzJiyn-36" style="edgeStyle=none;rounded=0;orthogonalLoop=1;jettySize=auto;html=1;entryX=1;entryY=0.5;entryDx=0;entryDy=0;exitX=0;exitY=0.5;exitDx=0;exitDy=0;" edge="1" parent="doMoEdmNG70haGPzJiyn-5" source="doMoEdmNG70haGPzJiyn-15" target="doMoEdmNG70haGPzJiyn-12">
          <mxGeometry relative="1" as="geometry">
            <Array as="points">
              <mxPoint x="164" y="515" />
              <mxPoint x="164" y="560" />
            </Array>
          </mxGeometry>
        </mxCell>
        <mxCell id="doMoEdmNG70haGPzJiyn-37" style="edgeStyle=orthogonalEdgeStyle;rounded=0;orthogonalLoop=1;jettySize=auto;html=1;exitX=0;exitY=0.5;exitDx=0;exitDy=0;entryX=1;entryY=0.5;entryDx=0;entryDy=0;" edge="1" parent="doMoEdmNG70haGPzJiyn-1" source="doMoEdmNG70haGPzJiyn-16" target="doMoEdmNG70haGPzJiyn-2">
          <mxGeometry relative="1" as="geometry" />
        </mxCell>
        <mxCell id="doMoEdmNG70haGPzJiyn-38" style="edgeStyle=orthogonalEdgeStyle;rounded=0;orthogonalLoop=1;jettySize=auto;html=1;entryX=0.549;entryY=0.021;entryDx=0;entryDy=0;entryPerimeter=0;" edge="1" parent="doMoEdmNG70haGPzJiyn-1" source="doMoEdmNG70haGPzJiyn-34" target="doMoEdmNG70haGPzJiyn-3">
          <mxGeometry relative="1" as="geometry" />
        </mxCell>
      </root>
    </mxGraphModel>
  </diagram>
</mxfile>
